<svg xmlns="http://www.w3.org/2000/svg" xmlns:xlink="http://www.w3.org/1999/xlink" width="80" height="80" viewBox="0 0 80 80">
  <defs>
    <clipPath id="clip-path">
      <rect id="Rectangle_850" data-name="Rectangle 850" width="80" height="80" transform="translate(907 5995)" fill="#fff" stroke="#707070" stroke-width="1"/>
    </clipPath>
  </defs>
  <g id="Mask_Group_169" data-name="Mask Group 169" transform="translate(-907 -5995)" clip-path="url(#clip-path)">
    <g id="__TEMP__SVG__" transform="translate(907.647 5995)">
      <path id="Path_30" data-name="Path 30" d="M50.86,7.588c9.112.569,17.655,5.125,23.919,11.39a41.379,41.379,0,0,1,11.39,29.044c0,9.112-3.417,17.654-9.112,25.058a39.384,39.384,0,0,1-22.78,13.668c-9.112,1.708-18.224.569-26.2-3.987A40.173,40.173,0,0,1,10.426,62.83,39.4,39.4,0,0,1,9.287,36.063c2.847-9.112,7.973-16.515,15.946-21.641A40.57,40.57,0,0,1,50.86,7.588Zm2.847,73.465a34.975,34.975,0,0,0,19.363-11.96c4.556-6.264,7.4-13.668,6.834-21.641,0-9.112-3.417-18.224-9.682-24.488a31.609,31.609,0,0,0-20.5-9.681A32.8,32.8,0,0,0,28.08,18.978a34.452,34.452,0,0,0-13.1,18.793,31.551,31.551,0,0,0,1.139,22.78A37.4,37.4,0,0,0,31.5,77.637a30.521,30.521,0,0,0,22.21,3.417Z" transform="translate(-7.464 -7.503)" fill="#fff" fill-rule="evenodd"/>
      <path id="Path_31" data-name="Path 31" d="M47.608,34.277,77.508,54.1l-29.9,20.046ZM52.592,64.8,68.515,54.131,52.592,43.543V64.8Z" transform="translate(-17.594 -14.259)" fill="#fff"/>
    </g>
  </g>
</svg>
